# xmcd
#
# Track frame offsets:
#	150
#	10397
#	28499
#	45006
#	57912
#	69941
#	81806
#	103819
#	117873
#	130633
#	144351
#	158978
#	170127
#	182675
#
# Disc length: 2726 seconds
#
# Revision: 1
# Processed by: cddbd v1.5.2PL0 Copyright (c) Steve Scherf et al.
# Submitted via: audiograbber 1.83.01
#
DISCID=b70aa40e
DTITLE=Teddy and Chano - Rodeo
DYEAR=2002
DGENRE=dansk 
TTITLE0=Gid jeg sad på Vestre
TTITLE1=Der er dækket til to
TTITLE2=Jeg er faktisk stolt af hvad jeg kan
TTITLE3=Seks dage på turné
TTITLE4=Jeg har spurgt om dit navn
TTITLE5=Jeg slukker mit lys
TTITLE6=Hvor åen har sit udløb i Limfjordens vande
TTITLE7=Jeg er dårlig til at huske
TTITLE8=Hva' sku' jeg være ked a'
TTITLE9=Texas tango
TTITLE10=Intet er født til at leve evigt
TTITLE11=Kom øl i munden
TTITLE12=Det er godt at være mig
TTITLE13=Hvor åen har sit udløb i Limfjordens vande (lystig version)
EXTD=
EXTT0=
EXTT1=
EXTT2=
EXTT3=
EXTT4=
EXTT5=
EXTT6=
EXTT7=
EXTT8=
EXTT9=
EXTT10=
EXTT11=
EXTT12=
EXTT13=
PLAYORDER=
